<svg width="80" height="80" viewBox="0 0 80 80" fill="none" xmlns="http://www.w3.org/2000/svg">
<path d="M40.0013 38.3337C37.7912 38.3337 35.6715 37.4557 34.1087 35.8929C32.5459 34.3301 31.668 32.2105 31.668 30.0003C31.668 27.7902 32.5459 25.6706 34.1087 24.1078C35.6715 22.545 37.7912 21.667 40.0013 21.667C42.2114 21.667 44.3311 22.545 45.8939 24.1078C47.4567 25.6706 48.3346 27.7902 48.3346 30.0003C48.3346 31.0947 48.1191 32.1783 47.7003 33.1894C47.2815 34.2004 46.6677 35.1191 45.8939 35.8929C45.12 36.6667 44.2014 37.2805 43.1903 37.6993C42.1793 38.1181 41.0957 38.3337 40.0013 38.3337ZM40.0013 6.66699C33.8129 6.66699 27.878 9.12532 23.5021 13.5012C19.1263 17.877 16.668 23.8119 16.668 30.0003C16.668 47.5003 40.0013 73.3337 40.0013 73.3337C40.0013 73.3337 63.3346 47.5003 63.3346 30.0003C63.3346 23.8119 60.8763 17.877 56.5005 13.5012C52.1246 9.12532 46.1897 6.66699 40.0013 6.66699Z" fill="#F24E1E"/>
</svg>
