<svg width="62" height="62" viewBox="0 0 62 62" fill="none" xmlns="http://www.w3.org/2000/svg">
<path d="M16.5833 2C18.25 2 24.9167 17 24.9167 18.6667C24.9167 22 19.9167 25.3333 18.25 28.6667C16.5833 32 19.9167 35.3333 23.25 38.6667C24.55 39.9667 29.9167 45.3333 33.25 43.6667C36.5833 42 39.9167 37 43.25 37C44.9167 37 59.9167 43.6667 59.9167 45.3333C59.9167 52 54.9167 57 49.9167 58.6667C44.9167 60.3333 41.5833 60.3333 34.9167 58.6667C28.25 57 23.25 55.3333 14.9167 47C6.58333 38.6667 4.91667 33.6667 3.25 27C1.58333 20.3333 1.58333 17 3.25 12C4.91667 7 9.91667 2 16.5833 2Z" stroke="#F24E1E" stroke-width="4" stroke-linecap="round" stroke-linejoin="round"/>
<path d="M36.582 15.4668C38.782 16.5001 40.782 17.9001 42.4487 19.6001C44.082 21.2335 45.4487 23.2001 46.4487 25.3335" stroke="#F24E1E" stroke-width="2" stroke-linecap="round" stroke-linejoin="round"/>
<path d="M39.918 2.8335C44.618 4.06683 48.818 6.50016 52.1513 9.8335C55.4513 13.1668 57.8846 17.3335 59.0846 22.0002" stroke="#F24E1E" stroke-width="2" stroke-linecap="round" stroke-linejoin="round"/>
</svg>
