<svg width="31" height="31" viewBox="0 0 31 31" fill="none" xmlns="http://www.w3.org/2000/svg">
<path d="M23.4688 0.5H7.53125C3.648 0.5 0.5 3.648 0.5 7.53125V23.4688C0.5 27.352 3.648 30.5 7.53125 30.5H23.4688C27.352 30.5 30.5 27.352 30.5 23.4688V7.53125C30.5 3.648 27.352 0.5 23.4688 0.5Z" fill="url(#paint0_radial_2295_1360)"/>
<path d="M23.4688 0.5H7.53125C3.648 0.5 0.5 3.648 0.5 7.53125V23.4688C0.5 27.352 3.648 30.5 7.53125 30.5H23.4688C27.352 30.5 30.5 27.352 30.5 23.4688V7.53125C30.5 3.648 27.352 0.5 23.4688 0.5Z" fill="url(#paint1_radial_2295_1360)"/>
<path d="M15.5011 3.78125C12.3185 3.78125 11.919 3.7952 10.6691 3.85203C9.42148 3.90922 8.56988 4.10668 7.8248 4.39648C7.05395 4.69578 6.40016 5.09621 5.74883 5.74777C5.09691 6.39922 4.69648 7.05301 4.39625 7.82352C4.10563 8.56883 3.90793 9.42078 3.8518 10.6678C3.7959 11.9178 3.78125 12.3174 3.78125 15.5001C3.78125 18.6828 3.79531 19.081 3.85203 20.3309C3.90945 21.5785 4.10691 22.4301 4.39648 23.1752C4.69602 23.9461 5.09645 24.5998 5.74801 25.2512C6.39922 25.9031 7.05301 26.3045 7.82328 26.6038C8.56895 26.8936 9.42066 27.091 10.668 27.1482C11.918 27.205 12.3172 27.219 15.4996 27.219C18.6826 27.219 19.0808 27.205 20.3307 27.1482C21.5783 27.091 22.4308 26.8936 23.1765 26.6038C23.947 26.3045 24.5998 25.9031 25.2509 25.2512C25.9029 24.5998 26.3032 23.9461 26.6035 23.1755C26.8916 22.4301 27.0894 21.5783 27.148 20.3312C27.2041 19.0812 27.2188 18.6828 27.2188 15.5001C27.2188 12.3174 27.2041 11.918 27.148 10.668C27.0894 9.42043 26.8916 8.56895 26.6035 7.82387C26.3032 7.05301 25.9029 6.39922 25.2509 5.74777C24.5991 5.09598 23.9472 4.69555 23.1758 4.3966C22.4287 4.10668 21.5766 3.9091 20.3291 3.85203C19.079 3.7952 18.6811 3.78125 15.4974 3.78125H15.5011ZM14.4498 5.89309C14.7618 5.89262 15.11 5.89309 15.5011 5.89309C18.6301 5.89309 19.0009 5.90434 20.2365 5.96047C21.3791 6.01273 21.9992 6.20363 22.4123 6.36406C22.9592 6.57641 23.3491 6.83035 23.759 7.24063C24.1692 7.65078 24.423 8.04137 24.6359 8.58828C24.7964 9.00078 24.9875 9.62094 25.0395 10.7635C25.0957 11.9989 25.1079 12.3699 25.1079 15.4974C25.1079 18.6249 25.0957 18.9961 25.0395 20.2313C24.9873 21.3739 24.7964 21.9941 24.6359 22.4067C24.4236 22.9536 24.1692 23.343 23.759 23.7529C23.3489 24.1631 22.9595 24.4169 22.4123 24.6294C21.9997 24.7905 21.3791 24.9809 20.2365 25.0332C19.0011 25.0893 18.6301 25.1015 15.5011 25.1015C12.3719 25.1015 12.001 25.0893 10.7657 25.0332C9.62316 24.9805 9.00301 24.7896 8.58957 24.6291C8.04277 24.4167 7.65207 24.1629 7.24191 23.7527C6.83176 23.3425 6.57793 22.9529 6.365 22.4057C6.20457 21.9931 6.01344 21.373 5.96141 20.2304C5.90527 18.995 5.89402 18.624 5.89402 15.4945C5.89402 12.365 5.90527 11.996 5.96141 10.7606C6.01367 9.61801 6.20457 8.99785 6.365 8.58477C6.57746 8.03785 6.83176 7.64727 7.24203 7.23711C7.6523 6.82695 8.04277 6.57301 8.58969 6.3602C9.00277 6.19906 9.62316 6.00863 10.7657 5.95613C11.8468 5.90727 12.2657 5.89262 14.4498 5.89016V5.89309ZM21.7565 7.83887C20.9802 7.83887 20.3503 8.46816 20.3503 9.24465C20.3503 10.021 20.9802 10.6509 21.7565 10.6509C22.5329 10.6509 23.1628 10.021 23.1628 9.24465C23.1628 8.46828 22.5329 7.8384 21.7565 7.8384V7.83887ZM15.5011 9.48195C12.1776 9.48195 9.48301 12.1766 9.48301 15.5001C9.48301 18.8237 12.1776 21.517 15.5011 21.517C18.8246 21.517 21.5183 18.8237 21.5183 15.5001C21.5183 12.1767 18.8244 9.48195 15.5008 9.48195H15.5011ZM15.5011 11.5938C17.6584 11.5938 19.4074 13.3426 19.4074 15.5001C19.4074 17.6574 17.6584 19.4064 15.5011 19.4064C13.3438 19.4064 11.5948 17.6574 11.5948 15.5001C11.5948 13.3426 13.3436 11.5938 15.5011 11.5938Z" fill="white"/>
<defs>
<radialGradient id="paint0_radial_2295_1360" cx="0" cy="0" r="1" gradientUnits="userSpaceOnUse" gradientTransform="translate(8.46875 32.8106) rotate(-90) scale(29.7322 27.6533)">
<stop stop-color="#FFDD55"/>
<stop offset="0.1" stop-color="#FFDD55"/>
<stop offset="0.5" stop-color="#FF543E"/>
<stop offset="1" stop-color="#C837AB"/>
</radialGradient>
<radialGradient id="paint1_radial_2295_1360" cx="0" cy="0" r="1" gradientUnits="userSpaceOnUse" gradientTransform="translate(-4.52512 2.66105) rotate(78.681) scale(13.2905 54.7837)">
<stop stop-color="#3771C8"/>
<stop offset="0.128" stop-color="#3771C8"/>
<stop offset="1" stop-color="#6600FF" stop-opacity="0"/>
</radialGradient>
</defs>
</svg>
