<svg width="24" height="24" viewBox="0 0 24 24" fill="none" xmlns="http://www.w3.org/2000/svg">
<path d="M21.9996 7.99851C21.9994 7.82003 21.9514 7.64486 21.8607 7.49118C21.77 7.33749 21.6398 7.21089 21.4836 7.12451L12.4616 2.12451C12.3133 2.04283 12.1468 2 11.9776 2C11.8083 2 11.6418 2.04283 11.4936 2.12451L2.51558 7.08451C2.35961 7.17087 2.22957 7.29736 2.13892 7.45087C2.04827 7.60439 2.00031 7.77934 2 7.95762C1.9997 8.1359 2.04706 8.31102 2.13718 8.46485C2.2273 8.61867 2.35691 8.74561 2.51258 8.83251L11.5346 13.8725C11.6831 13.956 11.8506 13.9999 12.0209 14.0001C12.1913 14.0002 12.3589 13.9567 12.5076 13.8735L21.4856 8.8735C21.6415 8.78678 21.7714 8.65991 21.8618 8.50605C21.9522 8.35219 21.9998 8.17695 21.9996 7.99851ZM12.0226 11.8535L5.05958 7.96451L11.9766 4.14251L18.9406 8.0015L12.0226 11.8535Z" fill="black"/>
<path d="M20.5145 11.1255L11.9995 15.8555L3.48455 11.1255L2.51355 12.8735L11.5135 17.8735C11.6621 17.956 11.8292 17.9993 11.9991 17.9993C12.1689 17.9993 12.336 17.956 12.4845 17.8735L21.4846 12.8735L20.5145 11.1255Z" fill="black"/>
<path d="M20.5145 15.1255L11.9995 19.8555L3.48455 15.1255L2.51355 16.8735L11.5135 21.8735C11.6621 21.956 11.8292 21.9993 11.9991 21.9993C12.1689 21.9993 12.336 21.956 12.4845 21.8735L21.4846 16.8735L20.5145 15.1255Z" fill="black"/>
</svg>
