<svg width="24" height="24" viewBox="0 0 24 24" fill="none" xmlns="http://www.w3.org/2000/svg">
<path d="M12.001 16C14.207 16 16.001 14.206 16.001 12C16.001 9.794 14.207 8 12.001 8C9.79498 8 8.00098 9.794 8.00098 12C8.00098 14.206 9.79498 16 12.001 16ZM12.001 10C13.085 10 14.001 10.916 14.001 12C14.001 13.084 13.085 14 12.001 14C10.917 14 10.001 13.084 10.001 12C10.001 10.916 10.917 10 12.001 10Z" fill="black"/>
<path d="M2.84595 16.136L3.84595 17.866C4.37695 18.783 5.65495 19.127 6.57595 18.596L7.10495 18.29C7.68349 18.7451 8.32136 19.1192 9.00095 19.402V20C9.00095 21.103 9.89795 22 11.001 22H13.001C14.104 22 15.001 21.103 15.001 20V19.402C15.6803 19.1192 16.3181 18.7454 16.897 18.291L17.426 18.597C18.349 19.127 19.624 18.785 20.157 17.866L21.156 16.137C21.421 15.6777 21.4928 15.132 21.3558 14.6197C21.2187 14.1075 20.8839 13.6706 20.425 13.405L19.92 13.113C20.0273 12.3756 20.0273 11.6264 19.92 10.889L20.425 10.597C20.8837 10.3312 21.2183 9.89433 21.3554 9.38216C21.4924 8.86998 21.4207 8.32436 21.156 7.865L20.157 6.136C19.626 5.216 18.349 4.871 17.426 5.404L16.897 5.71C16.3184 5.25491 15.6805 4.8808 15.001 4.598V4C15.001 2.897 14.104 2 13.001 2H11.001C9.89795 2 9.00095 2.897 9.00095 4V4.598C8.3216 4.88084 7.68377 5.25459 7.10495 5.709L6.57595 5.403C5.65195 4.872 4.37595 5.216 3.84495 6.135L2.84595 7.864C2.58094 8.3233 2.50907 8.86901 2.64613 9.38126C2.78319 9.89352 3.11798 10.3304 3.57695 10.596L4.08195 10.888C3.97419 11.6251 3.97419 12.3739 4.08195 13.111L3.57695 13.403C3.11812 13.669 2.78348 14.106 2.64645 14.6184C2.50941 15.1307 2.58116 15.6765 2.84595 16.136ZM6.17195 13.378C6.05904 12.9273 6.00161 12.4646 6.00095 12C6.00095 11.538 6.05895 11.074 6.17095 10.622C6.22369 10.4113 6.20635 10.1892 6.12154 9.98928C6.03673 9.78935 5.88908 9.6225 5.70095 9.514L4.57795 8.864L5.57595 7.135L6.72095 7.797C6.90768 7.90505 7.12441 7.94962 7.33862 7.92401C7.55283 7.89841 7.75296 7.80401 7.90895 7.655C8.58547 7.01156 9.40128 6.53281 10.293 6.256C10.4978 6.19347 10.6771 6.06683 10.8046 5.89473C10.932 5.72263 11.0009 5.51416 11.001 5.3V4H13.001V5.3C13.001 5.51416 13.0699 5.72263 13.1973 5.89473C13.3248 6.06683 13.5041 6.19347 13.709 6.256C14.6004 6.53321 15.4162 7.0119 16.093 7.655C16.2491 7.80372 16.4492 7.89792 16.6633 7.92352C16.8775 7.94911 17.0941 7.90473 17.281 7.797L18.425 7.136L19.425 8.865L18.301 9.514C18.1129 9.62262 17.9654 9.78948 17.8806 9.98938C17.7958 10.1893 17.7784 10.4113 17.831 10.622C17.943 11.074 18.001 11.538 18.001 12C18.001 12.461 17.943 12.925 17.83 13.378C17.7775 13.5888 17.795 13.8109 17.88 14.0108C17.965 14.2107 18.1128 14.3775 18.301 14.486L19.424 15.135L18.426 16.864L17.281 16.203C17.0943 16.0948 16.8775 16.0501 16.6633 16.0757C16.449 16.1013 16.2489 16.1958 16.093 16.345C15.4164 16.9884 14.6006 17.4672 13.709 17.744C13.5041 17.8065 13.3248 17.9332 13.1973 18.1053C13.0699 18.2774 13.001 18.4858 13.001 18.7L13.003 20H11.001V18.7C11.0009 18.4858 10.932 18.2774 10.8046 18.1053C10.6771 17.9332 10.4978 17.8065 10.293 17.744C9.40146 17.4668 8.58574 16.9881 7.90895 16.345C7.75326 16.1954 7.55301 16.1007 7.3386 16.0753C7.1242 16.0498 6.90734 16.095 6.72095 16.204L5.57695 16.866L4.57695 15.137L5.70095 14.486C5.88915 14.3775 6.03691 14.2107 6.12188 14.0108C6.20686 13.8109 6.22444 13.5888 6.17195 13.378Z" fill="black"/>
</svg>
